<svg width="110" height="25" viewBox="0 0 110 25" fill="none" xmlns="http://www.w3.org/2000/svg">
<path d="M0 8.93831L10.0816 8.94032L16.2118 8.94137V2.86816L0 8.93831Z" fill="#FF9D28"/>
<path d="M16.2139 2.86776V24.3092L23.8704 0L16.2139 2.86776Z" fill="#68C5ED"/>
<path d="M16.2113 8.94123L10.0811 8.94019L16.2113 24.3095V8.94123Z" fill="#044D80"/>
<path d="M0 8.93774L11.6536 12.8833L10.0816 8.93976L0 8.93774Z" fill="#E54747"/>
<path d="M37.1385 18.665C37.0496 18.7539 36.9015 18.8648 36.6943 18.998C36.4869 19.1313 36.2169 19.2645 35.8838 19.3978C35.5508 19.5309 35.1434 19.6454 34.6625 19.742C34.1812 19.838 33.63 19.8863 33.0082 19.8863C31.809 19.8863 30.7727 19.6937 29.8994 19.309C29.0257 18.9243 28.3041 18.3873 27.7343 17.6991C27.1643 17.0107 26.7462 16.1966 26.4797 15.2564C26.2133 14.3164 26.0801 13.2839 26.0801 12.1587C26.0801 11.0339 26.2244 9.99368 26.5131 9.03885C26.8017 8.08395 27.2347 7.25897 27.812 6.56285C28.3894 5.86726 29.1111 5.32314 29.9772 4.93071C30.8432 4.53872 31.8608 4.34229 33.0304 4.34229C33.6078 4.34229 34.1296 4.39427 34.5959 4.49771C35.0623 4.60137 35.4693 4.7236 35.8173 4.86411C36.1649 5.00499 36.4537 5.15273 36.6833 5.30822C36.9126 5.46364 37.0866 5.59348 37.2052 5.69678C37.3384 5.8155 37.453 5.95601 37.5494 6.11866C37.6455 6.28177 37.6937 6.45941 37.6937 6.65167C37.6937 6.94797 37.5827 7.2439 37.3606 7.5399C37.1386 7.8362 36.8943 8.11005 36.6278 8.36153C36.4501 8.18389 36.2503 8.00281 36.0283 7.81756C35.8062 7.63253 35.5582 7.46987 35.2844 7.32899C35.0103 7.18849 34.6994 7.07013 34.3517 6.9737C34.0037 6.87757 33.6152 6.82932 33.186 6.82932C32.4309 6.82932 31.7981 6.98131 31.2874 7.28455C30.7766 7.58815 30.3658 7.98402 30.0549 8.47258C29.7441 8.96114 29.522 9.52003 29.3887 10.1491C29.2555 10.7785 29.1889 11.4186 29.1889 12.0699C29.1889 12.7659 29.2555 13.432 29.3887 14.0683C29.5219 14.7049 29.7513 15.2676 30.0772 15.756C30.4026 16.2445 30.8283 16.6369 31.354 16.9328C31.8792 17.2292 32.5343 17.377 33.3192 17.377C33.7334 17.377 34.1148 17.3253 34.4627 17.2217C34.8104 17.1181 35.1178 16.9922 35.3842 16.8439C35.6507 16.6962 35.8839 16.5409 36.0837 16.3779C36.2836 16.215 36.4501 16.0746 36.5834 15.9558C36.6722 16.0596 36.7756 16.1856 36.8942 16.3334C37.0135 16.4828 37.1247 16.6385 37.2273 16.7998C37.3307 16.9628 37.4195 17.1255 37.4938 17.2881C37.5677 17.4513 37.6047 17.5991 37.6047 17.7321C37.6047 17.9248 37.5677 18.0876 37.4938 18.2208C37.4195 18.354 37.3011 18.5022 37.1385 18.665ZM48.582 16.9619C48.582 18.1385 48.753 18.9949 49.0957 19.531C48.8277 19.6351 48.5782 19.7097 48.3474 19.7543C48.1163 19.7991 47.8744 19.8213 47.6213 19.8213C47.0853 19.8213 46.6793 19.717 46.4039 19.5086C46.1282 19.3003 45.9532 19.0024 45.879 18.615C45.5511 18.9579 45.1193 19.2482 44.5832 19.4865C44.0471 19.7243 43.3916 19.8438 42.6174 19.8438C42.2152 19.8438 41.8132 19.788 41.4111 19.6771C41.0089 19.5652 40.6439 19.3837 40.3163 19.1316C39.9885 18.879 39.7206 18.5412 39.5121 18.1181C39.3034 17.6949 39.1994 17.1791 39.1994 16.5706C39.1994 15.8135 39.3816 15.1971 39.7467 14.7223C40.1115 14.247 40.5694 13.8723 41.1206 13.5975C41.6715 13.3231 42.2673 13.1342 42.9078 13.03C43.548 12.9259 44.1365 12.8593 44.6726 12.8293C44.8514 12.8146 45.0262 12.8069 45.1976 12.8069H45.6779V12.4003C45.6779 11.8279 45.525 11.4212 45.2199 11.1804C44.9144 10.9395 44.4192 10.8187 43.7343 10.8187C43.0938 10.8187 42.5241 10.9231 42.0254 11.1314C41.5262 11.3402 41.0385 11.5782 40.5621 11.8463C40.3534 11.5932 40.1857 11.3141 40.0595 11.0086C39.9328 10.7036 39.8696 10.4763 39.8696 10.3273C39.8696 10.1189 39.9847 9.91783 40.2159 9.72408C40.4466 9.53077 40.7632 9.35551 41.1653 9.19912C41.5675 9.04273 42.0289 8.91639 42.5505 8.81937C43.0715 8.72264 43.6227 8.67416 44.2036 8.67416C45.0077 8.67416 45.6891 8.7562 46.2475 8.9199C46.806 9.08397 47.2602 9.33701 47.6103 9.6794C47.9601 10.0222 48.2096 10.4502 48.3586 10.9639C48.5073 11.4778 48.582 12.0775 48.582 12.7622V16.9619H48.582ZM45.7224 14.3706H45.4098C45.3053 14.3706 45.201 14.3784 45.097 14.393C44.7245 14.423 44.3558 14.4676 43.9912 14.5269C43.6261 14.5867 43.3021 14.6909 43.0195 14.8398C42.7364 14.9888 42.5056 15.1825 42.3269 15.4205C42.1482 15.6589 42.0588 15.9644 42.0588 16.3366C42.0588 16.7536 42.1779 17.1071 42.4162 17.3976C42.6543 17.6881 43.0564 17.8333 43.6226 17.8333C43.9053 17.8333 44.1735 17.7963 44.4268 17.7214C44.6799 17.6473 44.9033 17.5504 45.097 17.4312C45.2904 17.312 45.4433 17.1818 45.555 17.0401C45.6666 16.8988 45.7225 16.7686 45.7225 16.6493V14.3706H45.7224ZM54.1442 9.96974C54.3815 9.68701 54.7529 9.40011 55.2576 9.10963C55.7624 8.81922 56.4008 8.67401 57.1729 8.67401C57.7224 8.67401 58.2456 8.76716 58.7431 8.95323C59.2401 9.13961 59.682 9.44127 60.068 9.85802C60.4541 10.2751 60.7621 10.8263 60.9924 11.5111C61.2225 12.1963 61.3376 13.038 61.3376 14.0354C61.3376 15.1971 61.2038 16.1542 60.9367 16.9061C60.6692 17.6585 60.3243 18.2542 59.9014 18.6934C59.4782 19.1327 59.0066 19.4418 58.4872 19.6204C57.9675 19.7991 57.4478 19.8886 56.9283 19.8886C56.4977 19.8886 56.1227 19.8401 55.8038 19.7434C55.4843 19.6463 55.2135 19.5387 54.9908 19.4194C54.7681 19.3004 54.5975 19.1814 54.4788 19.0619C54.3601 18.9429 54.2857 18.8608 54.2561 18.8161V24.3076H51.2179V8.98672C51.2926 8.9721 51.3827 8.95711 51.488 8.94212C51.5782 8.92751 51.6832 8.91624 51.8032 8.90856C51.9232 8.90125 52.0658 8.89745 52.2308 8.89745C52.7258 8.89745 53.146 8.97949 53.4912 9.14319C53.8362 9.30726 54.0542 9.5826 54.1442 9.96974ZM58.1654 14.1024C58.1654 13.6557 58.1283 13.2389 58.0543 12.8515C57.9803 12.4645 57.8582 12.1293 57.6878 11.8463C57.5175 11.5635 57.2877 11.3436 56.9991 11.1872C56.71 11.0308 56.3586 10.9528 55.9442 10.9528C55.3223 10.9528 54.8891 11.0721 54.6447 11.3101C54.4004 11.5485 54.2783 11.8093 54.2783 12.092V16.828C54.3965 16.9474 54.6073 17.0886 54.911 17.2525C55.2147 17.4165 55.5662 17.498 55.9662 17.498C56.7215 17.498 57.2768 17.2005 57.6323 16.6046C57.9877 16.009 58.1654 15.1748 58.1654 14.1024ZM63.6825 17.945C63.5781 17.6473 63.5111 17.3343 63.4814 17.0066C63.4515 16.6792 63.4368 16.3516 63.4368 16.0236V5.65814C63.5408 5.64353 63.6525 5.62854 63.7718 5.61347C63.8757 5.59885 63.9875 5.58774 64.1068 5.57999C64.226 5.57268 64.345 5.56887 64.4642 5.56887C64.7024 5.56887 64.9409 5.59125 65.1792 5.63585C65.4172 5.68059 65.6332 5.76994 65.8271 5.90388C66.0205 6.0379 66.1768 6.22054 66.2962 6.45121C66.4153 6.68225 66.4749 6.98392 66.4749 7.35592V8.94197H69.6025V11.1984H66.4749V15.9622C66.4749 17.0011 66.8993 17.5204 67.7483 17.5204C67.9567 17.5204 68.1538 17.4871 68.3403 17.4199C68.5264 17.3529 68.6939 17.2786 68.8429 17.1966C68.9917 17.1147 69.1222 17.0291 69.2339 16.9397C69.3456 16.8503 69.4238 16.7834 69.4684 16.7387C69.6918 17.0665 69.8628 17.3503 69.9822 17.5898C70.1012 17.8295 70.1609 18.0545 70.1609 18.2648C70.1609 18.4604 70.0829 18.6522 69.9263 18.84C69.7698 19.0278 69.55 19.201 69.2672 19.3587C68.9843 19.5164 68.6419 19.6442 68.2397 19.7419C67.8376 19.8397 67.3981 19.8886 66.9217 19.8886C65.998 19.8886 65.2796 19.7098 64.7658 19.3525C64.252 18.9949 63.8907 18.5257 63.6825 17.945ZM77.2972 17.6545C77.6707 17.6545 77.9995 17.6137 78.2837 17.5316C78.5675 17.45 78.8215 17.3494 79.0458 17.2302C79.2698 17.1112 79.4643 16.9808 79.6287 16.8393C79.793 16.6979 79.9424 16.5676 80.0773 16.4482C80.2563 16.6715 80.4431 16.9585 80.6375 17.3082C80.8317 17.6585 80.9289 17.945 80.9289 18.1683C80.9289 18.496 80.7426 18.7939 80.3706 19.0619C80.0578 19.3004 79.6144 19.5052 79.0414 19.6762C78.4678 19.8473 77.7938 19.9331 77.0196 19.9331C76.3193 19.9331 75.6306 19.8438 74.9532 19.6651C74.2754 19.4864 73.6721 19.1736 73.1437 18.7267C72.6148 18.2801 72.1866 17.6808 71.859 16.9286C71.5314 16.1765 71.3676 15.2273 71.3676 14.0802C71.3676 13.1418 71.5129 12.3342 71.8031 11.6564C72.0937 10.9789 72.4807 10.4166 72.9651 9.96981C73.4487 9.52301 73.9961 9.19561 74.6069 8.9868C75.2174 8.7785 75.843 8.67409 76.4835 8.67409C77.3174 8.67409 78.0248 8.80467 78.6056 9.06503C79.1866 9.32575 79.6591 9.67582 80.0242 10.115C80.3889 10.5544 80.6532 11.057 80.8172 11.6229C80.9809 12.189 81.063 12.7845 81.063 13.41V13.7227C81.063 13.8422 81.0592 13.9685 81.0518 14.1025C81.0442 14.2367 81.0369 14.3672 81.0295 14.4934C81.0218 14.6203 81.0106 14.7207 80.9961 14.7951H74.4058C74.4655 15.6143 74.7196 16.2955 75.1678 16.8393C75.6158 17.383 76.3258 17.6545 77.2972 17.6545ZM78.3152 13.1195C78.3152 12.4047 78.1765 11.8239 77.8994 11.3771C77.6223 10.9304 77.124 10.7069 76.4055 10.7069C75.791 10.7069 75.3006 10.9192 74.9338 11.3436C74.5665 11.7681 74.3834 12.36 74.3834 13.1195H78.3152V13.1195ZM86.3501 10.0262C86.4393 9.89329 86.5584 9.74563 86.7075 9.5829C86.8562 9.42032 87.0388 9.27258 87.2548 9.13968C87.4706 9.00671 87.7089 8.89566 87.9697 8.80706C88.23 8.71839 88.5094 8.67409 88.8075 8.67409C88.9862 8.67409 89.1761 8.68908 89.3771 8.71839C89.5782 8.74807 89.7642 8.80356 89.9355 8.88455C90.1066 8.96591 90.2446 9.07651 90.3489 9.21687C90.4529 9.35722 90.5052 9.53069 90.5052 9.73735C90.5052 10.0623 90.4231 10.4355 90.2595 10.8568C90.0954 11.2784 89.9319 11.638 89.7681 11.9357C89.5146 11.7272 89.2615 11.5671 89.0085 11.4554C88.7551 11.3438 88.4572 11.2878 88.1149 11.2878C87.6531 11.2878 87.266 11.4223 86.9534 11.691C86.6404 11.9598 86.4841 12.2809 86.4841 12.6543V19.8861H83.446V8.98672C83.5203 8.9721 83.6097 8.95711 83.714 8.94212C83.8033 8.92751 83.9075 8.91624 84.0268 8.90856C84.1459 8.90125 84.2872 8.89745 84.4512 8.89745C84.9277 8.89745 85.3409 8.98985 85.6911 9.17428C86.0408 9.35849 86.2608 9.64264 86.3501 10.0262ZM94.988 10.0262C95.0773 9.89329 95.1964 9.74563 95.3454 9.5829C95.4941 9.42032 95.6767 9.27258 95.8928 9.13968C96.1085 9.00671 96.3468 8.89566 96.6076 8.80706C96.868 8.71839 97.1472 8.67409 97.4453 8.67409C97.624 8.67409 97.8138 8.68908 98.0149 8.71839C98.2159 8.74807 98.402 8.80356 98.5734 8.88455C98.7446 8.96591 98.8822 9.07651 98.9869 9.21687C99.0908 9.35722 99.1432 9.53069 99.1432 9.73735C99.1432 10.0623 99.061 10.4355 98.8975 10.8568C98.7332 11.2784 98.5696 11.638 98.4059 11.9357C98.1526 11.7272 97.8993 11.5671 97.6463 11.4554C97.3931 11.3438 97.0952 11.2878 96.7528 11.2878C96.2911 11.2878 95.9039 11.4223 95.5912 11.691C95.2784 11.9598 95.1221 12.2809 95.1221 12.6543V19.8861H92.0839V8.98672C92.1583 8.9721 92.2476 8.95711 92.352 8.94212C92.4414 8.92751 92.5456 8.91624 92.6647 8.90856C92.7838 8.90125 92.9251 8.89745 93.0891 8.89745C93.5657 8.89745 93.9789 8.98985 94.3289 9.17428C94.6786 9.35849 94.8985 9.64264 94.988 10.0262ZM109.486 16.9619C109.486 18.1385 109.658 18.9949 110 19.531C109.732 19.6351 109.483 19.7097 109.252 19.7543C109.021 19.7991 108.779 19.8213 108.526 19.8213C107.99 19.8213 107.584 19.717 107.308 19.5086C107.033 19.3003 106.858 19.0024 106.783 18.615C106.456 18.9579 106.024 19.2482 105.488 19.4865C104.952 19.7243 104.296 19.8438 103.522 19.8438C103.12 19.8438 102.718 19.788 102.315 19.6771C101.913 19.5652 101.548 19.3837 101.221 19.1316C100.893 18.879 100.625 18.5412 100.417 18.1181C100.208 17.6949 100.104 17.1791 100.104 16.5706C100.104 15.8135 100.286 15.1971 100.651 14.7223C101.016 14.247 101.474 13.8723 102.025 13.5975C102.576 13.3231 103.172 13.1342 103.812 13.03C104.452 12.9259 105.041 12.8593 105.577 12.8293C105.756 12.8146 105.931 12.8069 106.102 12.8069H106.582V12.4003C106.582 11.8279 106.429 11.4212 106.124 11.1804C105.819 10.9395 105.324 10.8187 104.639 10.8187C103.998 10.8187 103.429 10.9231 102.93 11.1314C102.431 11.3402 101.943 11.5782 101.467 11.8463C101.258 11.5932 101.09 11.3141 100.964 11.0086C100.837 10.7036 100.774 10.4763 100.774 10.3273C100.774 10.1189 100.889 9.91783 101.12 9.72408C101.351 9.53077 101.668 9.35551 102.07 9.19912C102.472 9.04273 102.933 8.91639 103.455 8.81937C103.976 8.72264 104.527 8.67416 105.108 8.67416C105.912 8.67416 106.594 8.7562 107.152 8.9199C107.71 9.08397 108.165 9.33701 108.515 9.6794C108.864 10.0222 109.114 10.4502 109.263 10.9639C109.412 11.4778 109.486 12.0775 109.486 12.7622V16.9619ZM106.627 14.3706H106.314C106.21 14.3706 106.106 14.3784 106.002 14.393C105.629 14.423 105.26 14.4676 104.896 14.5269C104.531 14.5867 104.207 14.6909 103.924 14.8398C103.641 14.9888 103.41 15.1825 103.231 15.4205C103.053 15.6589 102.963 15.9644 102.963 16.3366C102.963 16.7536 103.082 17.1071 103.321 17.3976C103.559 17.6881 103.961 17.8333 104.527 17.8333C104.81 17.8333 105.078 17.7963 105.331 17.7214C105.585 17.6473 105.808 17.5504 106.002 17.4312C106.195 17.312 106.348 17.1818 106.459 17.0401C106.571 16.8988 106.627 16.7686 106.627 16.6493V14.3706H106.627Z" fill="#262626"/>
</svg>
