<svg width="34" height="34" viewBox="0 0 34 34" fill="none" xmlns="http://www.w3.org/2000/svg">
<path d="M24.0279 5.0216C23.544 4.55083 23.0928 4.10054 22.6253 3.65706C22.4804 3.52061 22.5821 3.4194 22.644 3.31593C23.179 2.40962 24.0501 1.73672 25.0787 1.43514C25.7021 1.23502 26.3616 1.16402 27.0148 1.22668C27.668 1.28935 28.3005 1.48431 28.8717 1.79901C30.9756 2.90543 30.7874 5.4719 29.573 6.63176C29.1126 7.06307 28.591 7.428 28.0243 7.71543C27.4398 8.0179 26.8554 8.30332 26.2827 8.62512C25.8069 8.89007 25.4364 9.25622 25.2646 9.78611C25.1945 9.99989 25.2365 10.0556 25.4715 10.0533C27.0167 10.0442 28.5631 10.0533 30.1095 10.0442C30.3433 10.0442 30.4309 10.0875 30.4216 10.3353C30.4005 10.8664 30.4087 11.3985 30.4216 11.9273C30.4216 12.0956 30.3737 12.1547 30.196 12.1547C27.711 12.1502 25.2268 12.1502 22.7434 12.1547C22.6265 12.1547 22.5178 12.1547 22.5166 11.9898C22.5166 10.316 22.8345 8.75703 24.1811 7.56305C24.8225 7.01048 25.5425 6.5509 26.3189 6.19851C26.7444 5.99611 27.1745 5.8028 27.5462 5.50942C27.8711 5.25243 28.0956 4.94087 28.1189 4.52013C28.154 3.86174 27.6187 3.37278 26.8098 3.32161C25.6468 3.24088 24.8076 3.75031 24.2208 4.69639C24.1624 4.78963 24.1086 4.88515 24.0279 5.0216Z" fill="black"/>
<path fill-rule="evenodd" clip-rule="evenodd" d="M0.843301 22.0597C3.05595 29.1951 9.83883 33.9789 17.6234 33.9994C18.3661 33.9835 19.1075 33.9292 19.8443 33.8368C22.6322 33.4752 25.2883 32.4606 27.5844 30.8803C27.7387 30.7756 27.7761 30.6972 27.6721 30.5232C26.483 28.5408 25.304 26.5547 24.1351 24.5647C24.0241 24.3771 23.9598 24.3998 23.8043 24.5135C20.756 26.8128 17.4048 27.3484 13.8036 26.0032C9.26609 24.3077 6.6946 19.5239 7.76177 14.8992C8.24535 12.7834 9.4424 10.8857 11.1625 9.50801C12.8825 8.13034 15.0268 7.35188 17.2541 7.29648C17.3282 7.30415 17.4029 7.28765 17.4663 7.24958C17.5298 7.2115 17.5785 7.15401 17.6047 7.08612C18.6637 4.91498 19.7278 2.74688 20.7969 0.581815C20.8915 0.390779 20.8892 0.327101 20.6461 0.28389C18.4723 -0.111486 16.2404 -0.0937231 14.0736 0.336198C10.2 1.10602 6.905 2.90494 4.34987 5.83984C0.193416 10.6157 -1.00466 16.0807 0.843301 22.0597ZM29.5813 28.9059C29.614 28.972 29.6471 29.0388 29.7189 29.0763C29.7827 29.059 29.8076 29.0091 29.8316 28.9607C29.8393 28.9452 29.8469 28.93 29.8557 28.9159C31.2115 26.6258 32.5725 24.3334 33.9385 22.0387C33.9805 21.9779 34.002 21.9059 33.9999 21.8327C33.9978 21.7596 33.9722 21.6888 33.9268 21.6304C32.567 19.3524 31.2135 17.0714 29.8662 14.7873C29.8313 14.7125 29.7732 14.6503 29.6999 14.6095C29.6267 14.5687 29.5422 14.5513 29.4583 14.5599C26.7582 14.5667 24.0573 14.5667 21.3557 14.5599C21.2713 14.5513 21.1863 14.5686 21.1125 14.6094C21.0387 14.6502 20.9799 14.7124 20.9443 14.7873C19.6024 17.0524 18.2614 19.3176 16.9211 21.5827C16.8527 21.6556 16.8159 21.7513 16.8182 21.8499H17.1467C18.0265 21.8499 18.9061 21.8508 19.7858 21.8517C21.5449 21.8534 23.3039 21.8552 25.0633 21.8499C25.1672 21.8384 25.2721 21.8587 25.3635 21.9081C25.4548 21.9574 25.5281 22.0333 25.573 22.1251C26.893 24.366 28.2177 26.6046 29.5471 28.8409C29.5594 28.8617 29.5703 28.8838 29.5813 28.9059Z" fill="#EF492D"/>
<path d="M24.0279 5.0216C23.544 4.55083 23.0928 4.10054 22.6253 3.65706C22.4804 3.52061 22.5821 3.4194 22.644 3.31593C23.179 2.40962 24.0501 1.73672 25.0787 1.43514C25.7021 1.23502 26.3616 1.16402 27.0148 1.22668C27.668 1.28935 28.3005 1.48431 28.8717 1.79901C30.9756 2.90543 30.7874 5.4719 29.573 6.63176C29.1126 7.06307 28.591 7.428 28.0243 7.71543C27.4398 8.0179 26.8554 8.30332 26.2827 8.62512C25.8069 8.89007 25.4364 9.25622 25.2646 9.78611C25.1945 9.99989 25.2365 10.0556 25.4715 10.0533C27.0167 10.0442 28.5631 10.0533 30.1095 10.0442C30.3433 10.0442 30.4309 10.0875 30.4216 10.3353C30.4005 10.8664 30.4087 11.3985 30.4216 11.9273C30.4216 12.0956 30.3737 12.1547 30.196 12.1547C27.711 12.1502 25.2268 12.1502 22.7434 12.1547C22.6265 12.1547 22.5178 12.1547 22.5166 11.9898C22.5166 10.316 22.8345 8.75703 24.1811 7.56305C24.8225 7.01048 25.5425 6.5509 26.3189 6.19851C26.7444 5.99611 27.1745 5.8028 27.5462 5.50942C27.8711 5.25243 28.0956 4.94087 28.1189 4.52013C28.154 3.86174 27.6187 3.37278 26.8098 3.32161C25.6468 3.24088 24.8076 3.75031 24.2208 4.69639C24.1624 4.78963 24.1086 4.88515 24.0279 5.0216Z" fill="#EF492D"/>
</svg>
