<svg width="110" height="26" viewBox="0 0 110 26" fill="none" xmlns="http://www.w3.org/2000/svg">
<path fill-rule="evenodd" clip-rule="evenodd" d="M25.7485 12.8742C25.7485 19.9845 19.9845 25.7485 12.8742 25.7485C5.76399 25.7485 0 19.9845 0 12.8742C0 5.76399 5.76399 0 12.8742 0C19.9845 0 25.7485 5.76399 25.7485 12.8742ZM8.36813 6.43701H14.5907C17.0797 6.43701 19.0967 8.45397 19.0967 10.943C19.0967 13.432 17.0797 15.449 14.5907 15.449H10.943V19.3112H8.36813V6.43701ZM10.943 12.8741H14.5907C15.6528 12.8741 16.5218 12.0051 16.5218 10.943C16.5218 9.88086 15.6528 9.01185 14.5907 9.01185H10.943V12.8741Z" fill="#DA552F"/>
<path fill-rule="evenodd" clip-rule="evenodd" d="M58.2238 17.1656V16.2322C57.741 16.8437 57.0865 17.1656 56.3355 17.1656C54.8014 17.1656 53.632 16.0069 53.632 13.9578C53.632 11.973 54.7799 10.7607 56.3355 10.7607C57.0544 10.7607 57.741 11.0611 58.2238 11.694V8.58276H59.8438V17.1656H58.2238ZM58.2238 15.0413V12.8849C57.9556 12.4772 57.3762 12.1875 56.8505 12.1875C55.9279 12.1875 55.2949 12.9064 55.2949 13.9578C55.2949 15.0199 55.9279 15.7387 56.8505 15.7387C57.3762 15.7387 57.9556 15.449 58.2238 15.0413ZM34.332 17.1656V8.58278H38.2801C40.1147 8.58278 41.1125 9.81656 41.1125 11.2971C41.1125 12.7669 40.104 14.0007 38.2801 14.0007H36.1344V17.1656H34.332ZM39.2779 11.2971C39.2779 10.589 38.7307 10.1599 38.0226 10.1599H36.1237V12.4236H38.0226C38.7307 12.4236 39.2779 11.9944 39.2779 11.2971ZM42.1952 17.1659V10.9112H43.8044V11.7373C44.2443 11.2008 44.9953 10.761 45.757 10.761V12.3273C45.639 12.3059 45.4995 12.2844 45.3172 12.2844C44.7807 12.2844 44.0726 12.5848 43.8152 12.9818V17.1659H42.1952ZM49.5763 10.761C47.5701 10.761 46.3577 12.2308 46.3577 13.9581C46.3577 15.6854 47.5701 17.1659 49.5763 17.1659C51.604 17.1659 52.8163 15.6854 52.8163 13.9581C52.8163 12.2308 51.604 10.761 49.5763 10.761ZM49.587 12.1879C50.5955 12.1879 51.1534 13.0139 51.1534 13.9581C51.1534 14.9129 50.5955 15.739 49.587 15.739C48.5893 15.739 48.0314 14.9236 48.0314 13.9581C48.0314 13.0139 48.5893 12.1879 49.587 12.1879ZM65.5523 16.2425V17.1652H67.1723V10.9105H65.563V15.0409C65.2841 15.395 64.7906 15.7383 64.1683 15.7383C63.4817 15.7383 63.0418 15.4593 63.0418 14.6118V10.9105H61.4326V15.2448C61.4326 16.4356 62.0655 17.1652 63.4066 17.1652C64.4044 17.1652 65.1339 16.6931 65.5523 16.2425ZM68.363 13.9581C68.363 12.0913 69.7255 10.761 71.603 10.761C72.8583 10.761 73.6093 11.3081 74.017 11.866L72.9656 12.853C72.6759 12.4239 72.236 12.1986 71.6781 12.1986C70.7018 12.1986 70.0259 12.9067 70.0259 13.9688C70.0259 15.0309 70.7126 15.7497 71.6781 15.7497C72.236 15.7497 72.6759 15.4922 72.9656 15.0846L74.017 16.0716C73.6093 16.6295 72.8583 17.1873 71.603 17.1873C69.7255 17.1659 68.363 15.8355 68.363 13.9581ZM75.3996 12.3057V15.4814C75.3996 16.5864 75.9897 17.1657 77.1269 17.1765C77.8028 17.1765 78.232 16.9941 78.468 16.7795L78.1247 15.5565C78.0389 15.6637 77.8028 15.7496 77.5668 15.7496C77.2128 15.7496 77.0089 15.4599 77.0089 15.063V12.3164H78.2427V10.911H77.0089V9.23736H75.3996V10.9003H74.3912V12.3057H75.3996ZM88.5223 17.1656V13.4642H84.542V17.1656H82.7503V8.58276H84.542V11.8979H88.5223V8.58276H90.3354V17.1656H88.5223ZM96.0743 16.2425V17.1652H97.6943V10.9105H96.0851V15.0409C95.8061 15.395 95.3126 15.7383 94.6903 15.7383C94.0037 15.7383 93.5639 15.4593 93.5639 14.6118V10.9105H91.9546V15.2448C91.9546 16.4356 92.5876 17.1652 93.9286 17.1652C94.9264 17.1652 95.6559 16.6931 96.0743 16.2425ZM103.392 17.1659V13.3251C103.392 12.4775 102.952 12.1879 102.265 12.1879C101.632 12.1879 101.149 12.5419 100.87 12.8959V17.1659H99.261V10.9112H100.87V11.6943C101.267 11.2437 102.018 10.761 103.005 10.761C104.357 10.761 105.001 11.5227 105.001 12.7028V17.1659H103.392ZM106.931 12.3057V15.4814C106.931 16.5864 107.521 17.1657 108.659 17.1765C109.335 17.1765 109.764 16.9941 110 16.7795L109.656 15.5565C109.571 15.6637 109.335 15.7496 109.099 15.7496C108.745 15.7496 108.541 15.4599 108.541 15.063V12.3164H109.774V10.911H108.541V9.23736H106.931V10.9003H105.923V12.3057H106.931Z" fill="#DA552F"/>
</svg>
