<svg width="91" height="51" viewBox="0 0 91 51" fill="none" xmlns="http://www.w3.org/2000/svg">
<path fill-rule="evenodd" clip-rule="evenodd" d="M16.3561 5.29505C14.3288 7.71303 12.2625 8.7106 12.2625 8.7106C12.2625 8.7106 12.1127 6.3371 14.2713 3.76107C16.4314 1.18436 18.655 0 18.655 0C18.655 0 18.3841 2.87571 16.3561 5.29505ZM9.57675 11.5242C9.57675 11.5242 10.9431 9.68233 11.6157 6.59794C12.2876 3.51355 11.1922 0.841048 11.1922 0.841048C11.1922 0.841048 9.77243 2.92308 9.05676 6.20794C8.34108 9.49281 9.57675 11.5242 9.57675 11.5242ZM8.20511 11.7522C8.04296 14.905 6.99407 16.9446 6.99407 16.9446C6.99407 16.9446 5.44367 15.141 5.61677 11.783C5.78987 8.42557 6.85176 6.14101 6.85176 6.14101C6.85176 6.14101 8.36727 8.59936 8.20511 11.7522ZM6.04409 21.4497C6.04409 21.4497 6.24115 19.1645 5.19568 16.1862C4.14953 13.2071 1.81572 11.5069 1.81572 11.5069C1.81572 11.5069 1.70008 14.0241 2.81328 17.1954C3.92648 20.3687 6.04409 21.4497 6.04409 21.4497ZM5.47801 23.1843C6.91484 25.995 7.02705 28.2864 7.02705 28.2864C7.02705 28.2864 4.78354 27.4995 3.25366 24.5055C1.72378 21.5121 1.49936 19.0024 1.49936 19.0024C1.49936 19.0024 4.04118 20.3736 5.47801 23.1843ZM11.5634 29.3614C11.7947 32.8296 10.9107 35.1963 10.9107 35.1963C10.9107 35.1963 8.98327 33.4235 8.73696 29.7309C8.49133 26.0362 9.35753 23.3992 9.35753 23.3992C9.35753 23.3992 11.3328 25.8925 11.5634 29.3614ZM19.0037 43.1033C19.0037 43.1033 18.8073 40.4555 17.0633 37.2452C15.3193 34.0335 12.3375 32.5214 12.3375 32.5214C12.3375 32.5214 12.6694 35.419 14.527 38.8387C16.3846 42.2576 19.0037 43.1033 19.0037 43.1033ZM29.1035 47.165C29.1035 47.165 29.4606 44.7121 25.5306 42.0047C21.5998 39.298 19.3372 39.2227 19.3372 39.2227C19.3372 39.2227 20.6358 42.5651 23.7988 44.5219C26.3838 46.1209 29.1035 47.165 29.1035 47.165ZM29.1026 47.5959C29.1026 47.5959 28.3158 49.5095 23.5701 50.0151C18.8245 50.5214 16.7999 49.5095 16.7999 49.5095C16.7999 49.5095 19.9637 47.0429 23.0009 46.9157C26.0381 46.7891 29.1026 47.5959 29.1026 47.5959ZM17.4028 44.336C21.0571 44.336 23.4772 45.428 23.4772 45.428C23.4772 45.428 21.4841 47.326 17.593 47.3253C13.7013 47.3253 10.9966 46.2347 10.9966 46.2347C10.9966 46.2347 13.7485 44.336 17.4028 44.336ZM11.5289 40.2894C15.0813 41.1446 17.1784 42.773 17.1784 42.773C17.1784 42.773 14.7967 44.1517 11.0144 43.241C7.23075 42.3297 4.85657 40.6342 4.85657 40.6342C4.85657 40.6342 7.97654 39.4334 11.5289 40.2894ZM14.0327 39.9501C14.0327 39.9501 12.7272 37.6388 9.78102 35.4767C6.83484 33.3147 3.49387 33.2161 3.49387 33.2161C3.49387 33.2161 5.02923 35.6964 8.16562 37.9994C11.3027 40.3018 14.0327 39.9501 14.0327 39.9501ZM8.43281 32.9536C8.43281 32.9536 7.52419 30.8476 5.19311 28.7198C2.86134 26.5912 0 26.1992 0 26.1992C0 26.1992 1.08994 28.4714 3.57291 30.7375C6.0552 33.0036 8.43281 32.9536 8.43281 32.9536ZM10.1293 20.929C8.85253 23.8163 7.14407 25.3462 7.14407 25.3462C7.14407 25.3462 6.34082 23.1081 7.70101 20.0333C9.06053 16.9592 10.8689 15.2035 10.8689 15.2035C10.8689 15.2035 11.406 18.0416 10.1293 20.929ZM9.03379 15.0261C9.03379 15.0261 11.2171 14.3235 13.5591 12.2065C15.9005 10.0896 16.5648 7.27891 16.5648 7.27891C16.5648 7.27891 14.1988 8.14648 11.7056 10.4009C9.211 12.6554 9.03379 15.0261 9.03379 15.0261Z" fill="#262626"/>
<path fill-rule="evenodd" clip-rule="evenodd" d="M74.1344 5.29505C76.1617 7.71303 78.2273 8.7106 78.2273 8.7106C78.2273 8.7106 78.3786 6.3371 76.2192 3.76107C74.0599 1.18436 71.8348 0 71.8348 0C71.8348 0 72.1065 2.87571 74.1344 5.29505ZM80.9126 11.5242C80.9126 11.5242 79.5462 9.6823 78.8743 6.59791C78.2025 3.51352 79.2972 0.841015 79.2972 0.841015C79.2972 0.841015 80.7162 2.92305 81.4326 6.20791C82.1496 9.49277 80.9126 11.5242 80.9126 11.5242ZM82.2869 11.7522C82.4498 14.905 83.4987 16.9446 83.4987 16.9446C83.4987 16.9446 85.0484 15.141 84.876 11.783C84.7029 8.42557 83.6403 6.14101 83.6403 6.14101C83.6403 6.14101 82.1255 8.59936 82.2869 11.7522ZM84.4447 21.4497C84.4447 21.4497 84.247 19.1645 85.2925 16.1862C86.3379 13.2071 88.6724 11.5069 88.6724 11.5069C88.6724 11.5069 88.7887 14.0241 87.6742 17.1954C86.5617 20.3687 84.4447 21.4497 84.4447 21.4497ZM85.0103 23.1843C83.5728 25.995 83.4613 28.2864 83.4613 28.2864C83.4613 28.2864 85.7055 27.4995 87.2354 24.5055C88.7652 21.5121 88.989 19.0024 88.989 19.0024C88.989 19.0024 86.4478 20.3736 85.0103 23.1843ZM78.9243 29.3614C78.6938 32.8296 79.5778 35.1963 79.5778 35.1963C79.5778 35.1963 81.5052 33.4235 81.7508 29.7309C81.9971 26.0362 81.1309 23.3992 81.1309 23.3992C81.1309 23.3992 79.1556 25.8925 78.9243 29.3614ZM71.4882 43.1033C71.4882 43.1033 71.6846 40.4554 73.4279 37.2451C75.172 34.0335 78.1537 32.5214 78.1537 32.5214C78.1537 32.5214 77.8219 35.419 75.9656 38.8386C74.1073 42.2576 71.4882 43.1033 71.4882 43.1033ZM61.3854 47.165C61.3854 47.165 61.0282 44.7121 64.9583 42.0047C68.8891 39.298 71.1517 39.2227 71.1517 39.2227C71.1517 39.2227 69.8538 42.5651 66.69 44.5219C64.1044 46.1209 61.3854 47.165 61.3854 47.165ZM61.3869 47.5958C61.3869 47.5958 62.1737 49.5095 66.9193 50.0151C71.665 50.5214 73.6895 49.5095 73.6895 49.5095C73.6895 49.5095 70.5258 47.0429 67.4886 46.9157C64.4514 46.7891 61.3869 47.5958 61.3869 47.5958ZM73.0856 44.336C69.4326 44.336 67.0119 45.428 67.0119 45.428C67.0119 45.428 69.005 47.326 72.8961 47.3253C76.7878 47.3253 79.4932 46.2347 79.4932 46.2347C79.4932 46.2347 76.7406 44.336 73.0856 44.336ZM78.9619 40.2894C75.4088 41.1446 73.3124 42.773 73.3124 42.773C73.3124 42.773 75.6941 44.1517 79.4771 43.241C83.26 42.3297 85.6342 40.6342 85.6342 40.6342C85.6342 40.6342 82.5143 39.4334 78.9619 40.2894ZM76.4557 39.95C76.4557 39.95 77.7619 37.6388 80.7074 35.4767C83.6542 33.3146 86.9952 33.2161 86.9952 33.2161C86.9952 33.2161 85.4605 35.6963 82.3234 37.9994C79.1864 40.3017 76.4557 39.95 76.4557 39.95ZM82.055 32.9536C82.055 32.9536 82.9637 30.8476 85.2947 28.7197C87.6265 26.5912 90.4885 26.1991 90.4885 26.1991C90.4885 26.1991 89.3972 28.4714 86.9149 30.7375C84.432 33.0035 82.055 32.9536 82.055 32.9536ZM80.3577 20.9289C81.6344 23.8163 83.3442 25.3461 83.3442 25.3461C83.3442 25.3461 84.1461 23.1081 82.7866 20.0333C81.4264 16.9592 79.6181 15.2035 79.6181 15.2035C79.6181 15.2035 79.081 18.0416 80.3577 20.9289ZM81.4555 15.0261C81.4555 15.0261 79.2722 14.3235 76.9308 12.2065C74.5881 10.0896 73.9244 7.27891 73.9244 7.27891C73.9244 7.27891 76.2897 8.14648 78.7843 10.4009C81.2776 12.6554 81.4555 15.0261 81.4555 15.0261Z" fill="#262626"/>
<path d="M51.0035 8.54545H43.5056L35.2563 13.6747V20.6662L42.7378 16.0923H42.9339V42H51.0035V8.54545Z" fill="#262626"/>
<path d="M30.1658 20.5H31.0607L31.3387 18.8125H32.2528L32.403 17.9176H31.4858L31.7095 16.5369H32.6331L32.7801 15.642H31.8565L32.1345 13.9545H31.2397L30.9616 15.642H29.5554L29.8334 13.9545H28.9385L28.6605 15.642H27.7432L27.5962 16.5369H28.5135L28.2897 17.9176H27.3661L27.2159 18.8125H28.1427L27.8647 20.5H28.7595L29.0376 18.8125H30.4438L30.1658 20.5ZM29.1846 17.9176L29.4083 16.5369H30.8146L30.5909 17.9176H29.1846Z" fill="#262626"/>
</svg>
