<svg width="110" height="28" viewBox="0 0 110 28" fill="none" xmlns="http://www.w3.org/2000/svg">
<path d="M28.9109 10.1702H40.0393V12.2418H35.6576V23.9202H33.2559V12.2418H28.8926L28.9109 10.1702ZM39.5626 13.9652H41.6159V15.8902H41.6526C41.7259 15.6152 41.8543 15.3585 42.0376 15.1018C42.2209 14.8452 42.4409 14.6068 42.7159 14.4052C42.9726 14.1852 43.2659 14.0202 43.5959 13.8918C43.9076 13.7635 44.2376 13.6902 44.5676 13.6902C44.8243 13.6902 45.0076 13.7085 45.0993 13.7085C45.1909 13.7268 45.3009 13.7452 45.3926 13.7452V15.8535C45.2459 15.8168 45.0809 15.7985 44.9159 15.7802C44.7509 15.7618 44.6043 15.7435 44.4393 15.7435C44.0726 15.7435 43.7243 15.8168 43.3943 15.9635C43.0643 16.1102 42.7893 16.3302 42.5326 16.6052C42.2943 16.8985 42.0926 17.2468 41.9459 17.6685C41.7993 18.0902 41.7259 18.5852 41.7259 19.1352V23.8652H39.5259L39.5626 13.9652ZM55.4759 23.9202H53.3126V22.5268H53.2759C53.0009 23.0402 52.5976 23.4252 52.0659 23.7368C51.5343 24.0485 50.9843 24.1952 50.4343 24.1952C49.1326 24.1952 48.1793 23.8835 47.5926 23.2235C47.0059 22.5818 46.7126 21.5918 46.7126 20.2902V13.9652H48.9126V20.0702C48.9126 20.9502 49.0776 21.5735 49.4259 21.9218C49.7559 22.2885 50.2326 22.4718 50.8376 22.4718C51.2959 22.4718 51.6809 22.3985 51.9926 22.2518C52.3043 22.1052 52.5609 21.9218 52.7443 21.6835C52.9459 21.4452 53.0743 21.1518 53.1659 20.8218C53.2576 20.4918 53.2943 20.1252 53.2943 19.7402V13.9652H55.4943V23.9202H55.4759ZM59.2159 20.7302C59.2893 21.3718 59.5276 21.8118 59.9493 22.0868C60.3709 22.3435 60.8843 22.4718 61.4709 22.4718C61.6726 22.4718 61.9109 22.4535 62.1676 22.4168C62.4243 22.3802 62.6809 22.3252 62.9009 22.2335C63.1393 22.1418 63.3226 22.0135 63.4693 21.8302C63.6159 21.6468 63.6893 21.4268 63.6709 21.1518C63.6526 20.8768 63.5609 20.6385 63.3593 20.4552C63.1576 20.2718 62.9193 20.1435 62.6259 20.0152C62.3326 19.9052 61.9843 19.8135 61.5993 19.7402C61.2143 19.6668 60.8293 19.5752 60.4259 19.4835C60.0226 19.3918 59.6193 19.2818 59.2343 19.1535C58.8493 19.0252 58.5193 18.8602 58.2076 18.6218C57.9143 18.4018 57.6576 18.1268 57.4926 17.7785C57.3093 17.4302 57.2176 17.0268 57.2176 16.5135C57.2176 15.9635 57.3459 15.5235 57.6209 15.1568C57.8776 14.7902 58.2259 14.4968 58.6293 14.2768C59.0326 14.0568 59.4909 13.8918 59.9859 13.8002C60.4809 13.7085 60.9576 13.6718 61.3976 13.6718C61.9109 13.6718 62.4059 13.7268 62.8643 13.8368C63.3226 13.9468 63.7626 14.1118 64.1293 14.3685C64.5143 14.6068 64.8259 14.9368 65.0643 15.3218C65.3209 15.7068 65.4676 16.1835 65.5409 16.7335H63.2493C63.1393 16.2018 62.9009 15.8535 62.5343 15.6702C62.1493 15.4868 61.7276 15.3952 61.2326 15.3952C61.0859 15.3952 60.8843 15.4135 60.6826 15.4318C60.4626 15.4685 60.2793 15.5052 60.0776 15.5785C59.8943 15.6518 59.7293 15.7618 59.6009 15.8902C59.4726 16.0185 59.3993 16.2018 59.3993 16.4218C59.3993 16.6968 59.4909 16.8985 59.6743 17.0635C59.8576 17.2285 60.0959 17.3568 60.4076 17.4852C60.7009 17.5952 61.0493 17.6868 61.4343 17.7602C61.8193 17.8335 62.2226 17.9252 62.6259 18.0168C63.0293 18.1085 63.4143 18.2185 63.7993 18.3468C64.1843 18.4752 64.5326 18.6402 64.8259 18.8785C65.1193 19.0985 65.3759 19.3735 65.5593 19.7035C65.7426 20.0335 65.8343 20.4552 65.8343 20.9318C65.8343 21.5185 65.7059 22.0135 65.4309 22.4352C65.1559 22.8385 64.8076 23.1868 64.3859 23.4435C63.9643 23.7002 63.4693 23.8835 62.9559 24.0118C62.4243 24.1218 61.9109 24.1952 61.3976 24.1952C60.7743 24.1952 60.1876 24.1218 59.6559 23.9752C59.1243 23.8285 58.6476 23.6085 58.2626 23.3335C57.8776 23.0402 57.5659 22.6918 57.3459 22.2518C57.1259 21.8302 56.9976 21.3168 56.9793 20.7118H59.1976V20.7302H59.2159ZM66.4576 13.9652H68.1259V10.9585H70.326V13.9468H72.306V15.5785H70.326V20.8952C70.326 21.1335 70.3443 21.3168 70.3626 21.5002C70.3809 21.6652 70.4359 21.8118 70.4909 21.9218C70.5643 22.0318 70.6743 22.1235 70.8026 22.1785C70.9493 22.2335 71.1326 22.2702 71.3893 22.2702C71.5359 22.2702 71.7009 22.2702 71.8476 22.2518C71.9943 22.2335 72.1593 22.2152 72.306 22.1785V23.8835C72.0676 23.9202 71.8293 23.9385 71.591 23.9568C71.3526 23.9935 71.1326 23.9935 70.8759 23.9935C70.2893 23.9935 69.8309 23.9385 69.4826 23.8285C69.1343 23.7185 68.8593 23.5535 68.6576 23.3518C68.4559 23.1318 68.3276 22.8752 68.2543 22.5635C68.1809 22.2518 68.1443 21.8668 68.1259 21.4635V15.5968H66.4576V13.9285V13.9652ZM73.846 13.9652H75.9176V15.3218H75.9543C76.266 14.7352 76.6876 14.3318 77.2376 14.0752C77.7876 13.8185 78.3743 13.6902 79.0343 13.6902C79.8226 13.6902 80.501 13.8185 81.0876 14.1118C81.6743 14.3868 82.151 14.7535 82.536 15.2485C82.921 15.7252 83.2143 16.2935 83.3976 16.9352C83.581 17.5768 83.691 18.2735 83.691 18.9885C83.691 19.6668 83.5993 20.3085 83.4343 20.9318C83.251 21.5552 82.9943 22.1235 82.646 22.6002C82.2976 23.0768 81.8576 23.4618 81.3076 23.7552C80.7576 24.0485 80.1343 24.1952 79.401 24.1952C79.0893 24.1952 78.7593 24.1585 78.4476 24.1035C78.136 24.0485 77.8243 23.9568 77.531 23.8285C77.2376 23.7002 76.9626 23.5352 76.7243 23.3335C76.4676 23.1318 76.266 22.8935 76.101 22.6368H76.0643V27.6052H73.8643V13.9652H73.846ZM81.5276 18.9518C81.5276 18.5118 81.4726 18.0718 81.3443 17.6502C81.2343 17.2285 81.051 16.8618 80.8126 16.5318C80.5743 16.2018 80.281 15.9452 79.951 15.7435C79.6026 15.5418 79.1993 15.4502 78.7593 15.4502C77.8426 15.4502 77.146 15.7618 76.6693 16.4035C76.211 17.0452 75.9726 17.9068 75.9726 18.9702C75.9726 19.4835 76.0276 19.9418 76.156 20.3635C76.2843 20.7852 76.4493 21.1518 76.706 21.4635C76.9443 21.7752 77.2376 22.0135 77.586 22.1968C77.9343 22.3802 78.3193 22.4718 78.7776 22.4718C79.291 22.4718 79.6943 22.3618 80.0426 22.1602C80.391 21.9585 80.666 21.6835 80.9043 21.3718C81.1243 21.0418 81.2893 20.6752 81.381 20.2535C81.4726 19.8135 81.5276 19.3918 81.5276 18.9518ZM85.396 10.1702H87.596V12.2418H85.396V10.1702ZM85.396 13.9652H87.596V23.9202H85.396V13.9652ZM89.5576 10.1702H91.7576V23.9202H89.5576V10.1702ZM98.4676 24.1952C97.6793 24.1952 96.9643 24.0668 96.341 23.7918C95.7176 23.5168 95.2043 23.1685 94.7643 22.7102C94.3426 22.2518 94.0126 21.6835 93.7926 21.0418C93.5726 20.4002 93.4443 19.6852 93.4443 18.9335C93.4443 18.1818 93.5543 17.4852 93.7926 16.8435C94.0126 16.2018 94.3426 15.6518 94.7643 15.1752C95.186 14.7168 95.7176 14.3502 96.341 14.0935C96.9643 13.8368 97.6793 13.6902 98.4676 13.6902C99.256 13.6902 99.971 13.8185 100.594 14.0935C101.218 14.3502 101.731 14.7168 102.171 15.1752C102.593 15.6335 102.923 16.2018 103.143 16.8435C103.363 17.4852 103.491 18.1818 103.491 18.9335C103.491 19.7035 103.381 20.4002 103.143 21.0418C102.904 21.6835 102.593 22.2335 102.171 22.7102C101.749 23.1685 101.218 23.5352 100.594 23.7918C99.971 24.0485 99.2743 24.1952 98.4676 24.1952ZM98.4676 22.4535C98.9443 22.4535 99.3843 22.3435 99.7326 22.1418C100.099 21.9402 100.374 21.6652 100.613 21.3352C100.851 21.0052 101.016 20.6202 101.126 20.2168C101.236 19.7952 101.291 19.3735 101.291 18.9335C101.291 18.5118 101.236 18.0902 101.126 17.6685C101.016 17.2468 100.851 16.8802 100.613 16.5502C100.374 16.2202 100.081 15.9635 99.7326 15.7618C99.366 15.5602 98.9443 15.4502 98.4676 15.4502C97.991 15.4502 97.551 15.5602 97.2026 15.7618C96.836 15.9635 96.561 16.2385 96.3226 16.5502C96.0843 16.8802 95.9193 17.2468 95.8093 17.6685C95.6993 18.0902 95.6443 18.5118 95.6443 18.9335C95.6443 19.3735 95.6993 19.7952 95.8093 20.2168C95.9193 20.6385 96.0843 21.0052 96.3226 21.3352C96.561 21.6652 96.8543 21.9402 97.2026 22.1418C97.5693 22.3618 97.991 22.4535 98.4676 22.4535ZM104.151 13.9652H105.819V10.9585H108.019V13.9468H109.999V15.5785H108.019V20.8952C108.019 21.1335 108.038 21.3168 108.056 21.5002C108.074 21.6652 108.129 21.8118 108.184 21.9218C108.258 22.0318 108.368 22.1235 108.496 22.1785C108.643 22.2335 108.826 22.2702 109.083 22.2702C109.229 22.2702 109.394 22.2702 109.541 22.2518C109.688 22.2335 109.853 22.2152 109.999 22.1785V23.8835C109.761 23.9202 109.523 23.9385 109.284 23.9568C109.046 23.9935 108.826 23.9935 108.569 23.9935C107.983 23.9935 107.524 23.9385 107.176 23.8285C106.828 23.7185 106.553 23.5535 106.351 23.3518C106.149 23.1318 106.021 22.8752 105.948 22.5635C105.874 22.2518 105.838 21.8668 105.819 21.4635V15.5968H104.151V13.9285V13.9652Z" fill="#262626"/>
<path d="M26.345 10.1701H16.28L13.1817 0.600098L10.065 10.1701L0 10.1518L8.14001 16.0734L5.02334 25.6435L13.1633 19.7218L21.3034 25.6435L18.205 16.0734L26.345 10.1701Z" fill="#00B67A"/>
<path d="M18.9016 18.2368L18.205 16.0735L13.1816 19.7218L18.9016 18.2368Z" fill="#005128"/>
</svg>
